<svg xmlns="http://www.w3.org/2000/svg" xmlns:xlink="http://www.w3.org/1999/xlink" version="1.1" class="marks" width="692.5" height="280" viewBox="0 0 692.5 280"><rect width="692.5" height="280" fill="#FCFAF4"/><g fill="none" stroke-miterlimit="10" transform="translate(75,1)"><g class="mark-group role-frame root" role="graphics-object" aria-roledescription="group mark container"><g transform="translate(0,0)"><path class="background" aria-hidden="true" d="M0,0h465.5v194h-465.5Z" stroke-width="0"/><g><g class="mark-group role-axis" aria-hidden="true"><g transform="translate(0.5,0.5)"><path class="background" aria-hidden="true" d="M0,0h0v0h0Z" pointer-events="none"/><g><g class="mark-rule role-axis-grid" pointer-events="none"><line transform="translate(0,194)" x2="465.5" y2="0" stroke="#e6eaf1" stroke-width="1" opacity="1"/><line transform="translate(0,73)" x2="465.5" y2="0" stroke="#e6eaf1" stroke-width="1" opacity="1"/><line transform="translate(0,133)" x2="465.5" y2="0" stroke="#e6eaf1" stroke-width="1" opacity="1"/><line transform="translate(0,12)" x2="465.5" y2="0" stroke="#e6eaf1" stroke-width="1" opacity="1"/></g></g><path class="foreground" aria-hidden="true" d="" pointer-events="none" display="none"/></g></g><g class="mark-group role-axis" role="graphics-symbol" aria-roledescription="axis" aria-label="X-axis titled 'Year' for a discrete scale with 17 values: 2024, 2025, 2026, 2027, 2028, ending with 2040"><g transform="translate(0.5,194.5)"><path class="background" aria-hidden="true" d="M0,0h0v0h0Z" pointer-events="none"/><g><g class="mark-text role-axis-label" pointer-events="none"><text text-anchor="end" transform="translate(13.691176470588232,15) rotate(270) translate(0,3)" font-family="'Source Sans 3', &quot;Source Sans&quot;, sans-serif" font-size="11.25px" font-style="normal" font-weight="400" fill="#808495" opacity="1">2024</text><text text-anchor="end" transform="translate(41.0735294117647,15) rotate(270) translate(0,3)" font-family="'Source Sans 3', &quot;Source Sans&quot;, sans-serif" font-size="11.25px" font-style="normal" font-weight="400" fill="#808495" opacity="1">2025</text><text text-anchor="end" transform="translate(68.45588235294117,15) rotate(270) translate(0,3)" font-family="'Source Sans 3', &quot;Source Sans&quot;, sans-serif" font-size="11.25px" font-style="normal" font-weight="400" fill="#808495" opacity="1">2026</text><text text-anchor="end" transform="translate(95.83823529411765,15) rotate(270) translate(0,3)" font-family="'Source Sans 3', &quot;Source Sans&quot;, sans-serif" font-size="11.25px" font-style="normal" font-weight="400" fill="#808495" opacity="1">2027</text><text text-anchor="end" transform="translate(123.22058823529412,15) rotate(270) translate(0,3)" font-family="'Source Sans 3', &quot;Source Sans&quot;, sans-serif" font-size="11.25px" font-style="normal" font-weight="400" fill="#808495" opacity="1">2028</text><text text-anchor="end" transform="translate(150.60294117647058,15) rotate(270) translate(0,3)" font-family="'Source Sans 3', &quot;Source Sans&quot;, sans-serif" font-size="11.25px" font-style="normal" font-weight="400" fill="#808495" opacity="1">2029</text><text text-anchor="end" transform="translate(177.98529411764707,15) rotate(270) translate(0,3)" font-family="'Source Sans 3', &quot;Source Sans&quot;, sans-serif" font-size="11.25px" font-style="normal" font-weight="400" fill="#808495" opacity="1">2030</text><text text-anchor="end" transform="translate(205.36764705882354,15) rotate(270) translate(0,3)" font-family="'Source Sans 3', &quot;Source Sans&quot;, sans-serif" font-size="11.25px" font-style="normal" font-weight="400" fill="#808495" opacity="1">2031</text><text text-anchor="end" transform="translate(232.75,15) rotate(270) translate(0,3)" font-family="'Source Sans 3', &quot;Source Sans&quot;, sans-serif" font-size="11.25px" font-style="normal" font-weight="400" fill="#808495" opacity="1">2032</text><text text-anchor="end" transform="translate(260.13235294117646,15) rotate(270) translate(0,3)" font-family="'Source Sans 3', &quot;Source Sans&quot;, sans-serif" font-size="11.25px" font-style="normal" font-weight="400" fill="#808495" opacity="1">2033</text><text text-anchor="end" transform="translate(287.5147058823529,15) rotate(270) translate(0,3)" font-family="'Source Sans 3', &quot;Source Sans&quot;, sans-serif" font-size="11.25px" font-style="normal" font-weight="400" fill="#808495" opacity="1">2034</text><text text-anchor="end" transform="translate(314.8970588235294,15) rotate(270) translate(0,3)" font-family="'Source Sans 3', &quot;Source Sans&quot;, sans-serif" font-size="11.25px" font-style="normal" font-weight="400" fill="#808495" opacity="1">2035</text><text text-anchor="end" transform="translate(342.2794117647059,15) rotate(270) translate(0,3)" font-family="'Source Sans 3', &quot;Source Sans&quot;, sans-serif" font-size="11.25px" font-style="normal" font-weight="400" fill="#808495" opacity="1">2036</text><text text-anchor="end" transform="translate(369.6617647058824,15) rotate(270) translate(0,3)" font-family="'Source Sans 3', &quot;Source Sans&quot;, sans-serif" font-size="11.25px" font-style="normal" font-weight="400" fill="#808495" opacity="1">2037</text><text text-anchor="end" transform="translate(397.04411764705884,15) rotate(270) translate(0,3)" font-family="'Source Sans 3', &quot;Source Sans&quot;, sans-serif" font-size="11.25px" font-style="normal" font-weight="400" fill="#808495" opacity="1">2038</text><text text-anchor="end" transform="translate(424.4264705882353,15) rotate(270) translate(0,3)" font-family="'Source Sans 3', &quot;Source Sans&quot;, sans-serif" font-size="11.25px" font-style="normal" font-weight="400" fill="#808495" opacity="1">2039</text><text text-anchor="end" transform="translate(451.80882352941177,15) rotate(270) translate(0,3)" font-family="'Source Sans 3', &quot;Source Sans&quot;, sans-serif" font-size="11.25px" font-style="normal" font-weight="400" fill="#808495" opacity="1">2040</text></g><g class="mark-text role-axis-title" pointer-events="none"><text text-anchor="middle" transform="translate(232.75,62.364990234375)" font-family="'Source Sans 3', &quot;Source Sans&quot;, sans-serif" font-size="13.125px" font-style="normal" font-weight="400" fill="#808495" opacity="1">Year</text></g></g><path class="foreground" aria-hidden="true" d="" pointer-events="none" display="none"/></g></g><g class="mark-group role-axis" role="graphics-symbol" aria-roledescription="axis" aria-label="Y-axis titled 'Teachers' for a linear scale with values from 0 to 16,000"><g transform="translate(0.5,0.5)"><path class="background" aria-hidden="true" d="M0,0h0v0h0Z" pointer-events="none"/><g><g class="mark-text role-axis-label" pointer-events="none"><text text-anchor="end" transform="translate(-15,193)" font-family="'Source Sans 3', &quot;Source Sans&quot;, sans-serif" font-size="11.25px" font-style="normal" font-weight="400" fill="#808495" opacity="1">0</text><text text-anchor="end" transform="translate(-15,75.75)" font-family="'Source Sans 3', &quot;Source Sans&quot;, sans-serif" font-size="11.25px" font-style="normal" font-weight="400" fill="#808495" opacity="1">10,000</text><text text-anchor="end" transform="translate(-15,136.375)" font-family="'Source Sans 3', &quot;Source Sans&quot;, sans-serif" font-size="11.25px" font-style="normal" font-weight="400" fill="#808495" opacity="1">5,000</text><text text-anchor="end" transform="translate(-15,15.125)" font-family="'Source Sans 3', &quot;Source Sans&quot;, sans-serif" font-size="11.25px" font-style="normal" font-weight="400" fill="#808495" opacity="1">15,000</text></g><g class="mark-text role-axis-title" pointer-events="none"><text text-anchor="middle" transform="translate(-60.757476806640625,97) rotate(-90) translate(0,-3)" font-family="'Source Sans 3', &quot;Source Sans&quot;, sans-serif" font-size="13.125px" font-style="normal" font-weight="400" fill="#808495" opacity="1">Teachers</text></g></g><path class="foreground" aria-hidden="true" d="" pointer-events="none" display="none"/></g></g><g class="mark-group role-scope layer_0_pathgroup" role="graphics-object" aria-roledescription="group mark container"><g transform="translate(0,0)"><path class="background" aria-hidden="true" d="M0,0h465.5v194h-465.5Z"/><g><g class="mark-line role-mark layer_0_marks" role="graphics-object" aria-roledescription="line mark container"><path aria-label="Year: 2024; Teachers: 10406.5891622; Measure: Required teachers; series: Required teachers; year: 2024; value: 10,407" role="graphics-symbol" aria-roledescription="line mark" d="M13.691,67.82L41.074,65.271L68.456,62.671L95.838,60.018L123.221,57.312L150.603,54.551L177.985,51.734L205.368,48.86L232.75,45.928L260.132,42.937L287.515,39.886L314.897,36.772L342.279,33.596L369.662,30.356L397.044,27.051L424.426,23.678L451.809,20.238" stroke="#1F6C7A" stroke-width="2"/></g></g><path class="foreground" aria-hidden="true" d="" display="none"/></g><g transform="translate(0,0)"><path class="background" aria-hidden="true" d="M0,0h465.5v194h-465.5Z"/><g><g class="mark-line role-mark layer_0_marks" role="graphics-object" aria-roledescription="line mark container"><path aria-label="Year: 2024; Teachers: 10437; Measure: Current teachers; series: Current teachers; year: 2024; value: 10,437" role="graphics-symbol" aria-roledescription="line mark" d="M13.691,67.451L41.074,67.451L68.456,67.451L95.838,67.451L123.221,67.451L150.603,67.451L177.985,67.451L205.368,67.451L232.75,67.451L260.132,67.451L287.515,67.451L314.897,67.451L342.279,67.451L369.662,67.451L397.044,67.451L424.426,67.451L451.809,67.451" stroke="#B55233" stroke-width="2"/></g></g><path class="foreground" aria-hidden="true" d="" display="none"/></g></g><g class="mark-symbol role-mark layer_1_marks" role="graphics-object" aria-roledescription="symbol mark container"><path aria-label="Year: 2024; Teachers: 10406.5891622; Measure: Required teachers; series: Required teachers; year: 2024; value: 10,407" role="graphics-symbol" aria-roledescription="point" transform="translate(13.691176470588232,67.8201064087838)" d="M2.739,0A2.739,2.739,0,1,1,-2.739,0A2.739,2.739,0,1,1,2.739,0" fill="#1F6C7A" stroke-width="2" opacity="1"/><path aria-label="Year: 2025; Teachers: 10616.8022632; Measure: Required teachers; series: Required teachers; year: 2025; value: 10,617" role="graphics-symbol" aria-roledescription="point" transform="translate(41.0735294117647,65.27127255824121)" d="M2.739,0A2.739,2.739,0,1,1,-2.739,0A2.739,2.739,0,1,1,2.739,0" fill="#1F6C7A" stroke-width="2" opacity="1"/><path aria-label="Year: 2026; Teachers: 10831.261669; Measure: Required teachers; series: Required teachers; year: 2026; value: 10,831" role="graphics-symbol" aria-roledescription="point" transform="translate(68.45588235294117,62.670952263917684)" d="M2.739,0A2.739,2.739,0,1,1,-2.739,0A2.739,2.739,0,1,1,2.739,0" fill="#1F6C7A" stroke-width="2" opacity="1"/><path aria-label="Year: 2027; Teachers: 11050.0531547; Measure: Required teachers; series: Required teachers; year: 2027; value: 11,050" role="graphics-symbol" aria-roledescription="point" transform="translate(95.83823529411765,60.018105499648826)" d="M2.739,0A2.739,2.739,0,1,1,-2.739,0A2.739,2.739,0,1,1,2.739,0" fill="#1F6C7A" stroke-width="2" opacity="1"/><path aria-label="Year: 2028; Teachers: 11273.2642284; Measure: Required teachers; series: Required teachers; year: 2028; value: 11,273" role="graphics-symbol" aria-roledescription="point" transform="translate(123.22058823529412,57.3116712307417)" d="M2.739,0A2.739,2.739,0,1,1,-2.739,0A2.739,2.739,0,1,1,2.739,0" fill="#1F6C7A" stroke-width="2" opacity="1"/><path aria-label="Year: 2029; Teachers: 11500.9841658; Measure: Required teachers; series: Required teachers; year: 2029; value: 11,501" role="graphics-symbol" aria-roledescription="point" transform="translate(150.60294117647058,54.550566989602736)" d="M2.739,0A2.739,2.739,0,1,1,-2.739,0A2.739,2.739,0,1,1,2.739,0" fill="#1F6C7A" stroke-width="2" opacity="1"/><path aria-label="Year: 2030; Teachers: 11733.304046; Measure: Required teachers; series: Required teachers; year: 2030; value: 11,733" role="graphics-symbol" aria-roledescription="point" transform="translate(177.98529411764707,51.73368844279271)" d="M2.739,0A2.739,2.739,0,1,1,-2.739,0A2.739,2.739,0,1,1,2.739,0" fill="#1F6C7A" stroke-width="2" opacity="1"/><path aria-label="Year: 2031; Teachers: 11970.3167877; Measure: Required teachers; series: Required teachers; year: 2031; value: 11,970" role="graphics-symbol" aria-roledescription="point" transform="translate(205.36764705882354,48.85990894933712)" d="M2.739,0A2.739,2.739,0,1,1,-2.739,0A2.739,2.739,0,1,1,2.739,0" fill="#1F6C7A" stroke-width="2" opacity="1"/><path aria-label="Year: 2032; Teachers: 12212.1171868; Measure: Required teachers; series: Required teachers; year: 2032; value: 12,212" role="graphics-symbol" aria-roledescription="point" transform="translate(232.75,45.92807911011375)" d="M2.739,0A2.739,2.739,0,1,1,-2.739,0A2.739,2.739,0,1,1,2.739,0" fill="#1F6C7A" stroke-width="2" opacity="1"/><path aria-label="Year: 2033; Teachers: 12458.801954; Measure: Required teachers; series: Required teachers; year: 2033; value: 12,459" role="graphics-symbol" aria-roledescription="point" transform="translate(260.13235294117646,42.93702630813803)" d="M2.739,0A2.739,2.739,0,1,1,-2.739,0A2.739,2.739,0,1,1,2.739,0" fill="#1F6C7A" stroke-width="2" opacity="1"/><path aria-label="Year: 2034; Teachers: 12710.4697534; Measure: Required teachers; series: Required teachers; year: 2034; value: 12,710" role="graphics-symbol" aria-roledescription="point" transform="translate(287.5147058823529,39.8855542395624)" d="M2.739,0A2.739,2.739,0,1,1,-2.739,0A2.739,2.739,0,1,1,2.739,0" fill="#1F6C7A" stroke-width="2" opacity="1"/><path aria-label="Year: 2035; Teachers: 12967.2212425; Measure: Required teachers; series: Required teachers; year: 2035; value: 12,967" role="graphics-symbol" aria-roledescription="point" transform="translate(314.8970588235294,36.77244243520157)" d="M2.739,0A2.739,2.739,0,1,1,-2.739,0A2.739,2.739,0,1,1,2.739,0" fill="#1F6C7A" stroke-width="2" opacity="1"/><path aria-label="Year: 2036; Teachers: 13229.1591116; Measure: Required teachers; series: Required teachers; year: 2036; value: 13,229" role="graphics-symbol" aria-roledescription="point" transform="translate(342.2794117647059,33.59644577239262)" d="M2.739,0A2.739,2.739,0,1,1,-2.739,0A2.739,2.739,0,1,1,2.739,0" fill="#1F6C7A" stroke-width="2" opacity="1"/><path aria-label="Year: 2037; Teachers: 13496.3881256; Measure: Required teachers; series: Required teachers; year: 2037; value: 13,496" role="graphics-symbol" aria-roledescription="point" transform="translate(369.6617647058824,30.356293976994987)" d="M2.739,0A2.739,2.739,0,1,1,-2.739,0A2.739,2.739,0,1,1,2.739,0" fill="#1F6C7A" stroke-width="2" opacity="1"/><path aria-label="Year: 2038; Teachers: 13769.0151657; Measure: Required teachers; series: Required teachers; year: 2038; value: 13,769" role="graphics-symbol" aria-roledescription="point" transform="translate(397.04411764705884,27.05069111533027)" d="M2.739,0A2.739,2.739,0,1,1,-2.739,0A2.739,2.739,0,1,1,2.739,0" fill="#1F6C7A" stroke-width="2" opacity="1"/><path aria-label="Year: 2039; Teachers: 14047.1492721; Measure: Required teachers; series: Required teachers; year: 2039; value: 14,047" role="graphics-symbol" aria-roledescription="point" transform="translate(424.4264705882353,23.67831507585995)" d="M2.739,0A2.739,2.739,0,1,1,-2.739,0A2.739,2.739,0,1,1,2.739,0" fill="#1F6C7A" stroke-width="2" opacity="1"/><path aria-label="Year: 2040; Teachers: 14330.9016874; Measure: Required teachers; series: Required teachers; year: 2040; value: 14,331" role="graphics-symbol" aria-roledescription="point" transform="translate(451.80882352941177,20.237817040392308)" d="M2.739,0A2.739,2.739,0,1,1,-2.739,0A2.739,2.739,0,1,1,2.739,0" fill="#1F6C7A" stroke-width="2" opacity="1"/><path aria-label="Year: 2024; Teachers: 10437; Measure: Current teachers; series: Current teachers; year: 2024; value: 10,437" role="graphics-symbol" aria-roledescription="point" transform="translate(13.691176470588232,67.45137500000001)" d="M2.739,0A2.739,2.739,0,1,1,-2.739,0A2.739,2.739,0,1,1,2.739,0" fill="#B55233" stroke-width="2" opacity="1"/><path aria-label="Year: 2025; Teachers: 10437; Measure: Current teachers; series: Current teachers; year: 2025; value: 10,437" role="graphics-symbol" aria-roledescription="point" transform="translate(41.0735294117647,67.45137500000001)" d="M2.739,0A2.739,2.739,0,1,1,-2.739,0A2.739,2.739,0,1,1,2.739,0" fill="#B55233" stroke-width="2" opacity="1"/><path aria-label="Year: 2026; Teachers: 10437; Measure: Current teachers; series: Current teachers; year: 2026; value: 10,437" role="graphics-symbol" aria-roledescription="point" transform="translate(68.45588235294117,67.45137500000001)" d="M2.739,0A2.739,2.739,0,1,1,-2.739,0A2.739,2.739,0,1,1,2.739,0" fill="#B55233" stroke-width="2" opacity="1"/><path aria-label="Year: 2027; Teachers: 10437; Measure: Current teachers; series: Current teachers; year: 2027; value: 10,437" role="graphics-symbol" aria-roledescription="point" transform="translate(95.83823529411765,67.45137500000001)" d="M2.739,0A2.739,2.739,0,1,1,-2.739,0A2.739,2.739,0,1,1,2.739,0" fill="#B55233" stroke-width="2" opacity="1"/><path aria-label="Year: 2028; Teachers: 10437; Measure: Current teachers; series: Current teachers; year: 2028; value: 10,437" role="graphics-symbol" aria-roledescription="point" transform="translate(123.22058823529412,67.45137500000001)" d="M2.739,0A2.739,2.739,0,1,1,-2.739,0A2.739,2.739,0,1,1,2.739,0" fill="#B55233" stroke-width="2" opacity="1"/><path aria-label="Year: 2029; Teachers: 10437; Measure: Current teachers; series: Current teachers; year: 2029; value: 10,437" role="graphics-symbol" aria-roledescription="point" transform="translate(150.60294117647058,67.45137500000001)" d="M2.739,0A2.739,2.739,0,1,1,-2.739,0A2.739,2.739,0,1,1,2.739,0" fill="#B55233" stroke-width="2" opacity="1"/><path aria-label="Year: 2030; Teachers: 10437; Measure: Current teachers; series: Current teachers; year: 2030; value: 10,437" role="graphics-symbol" aria-roledescription="point" transform="translate(177.98529411764707,67.45137500000001)" d="M2.739,0A2.739,2.739,0,1,1,-2.739,0A2.739,2.739,0,1,1,2.739,0" fill="#B55233" stroke-width="2" opacity="1"/><path aria-label="Year: 2031; Teachers: 10437; Measure: Current teachers; series: Current teachers; year: 2031; value: 10,437" role="graphics-symbol" aria-roledescription="point" transform="translate(205.36764705882354,67.45137500000001)" d="M2.739,0A2.739,2.739,0,1,1,-2.739,0A2.739,2.739,0,1,1,2.739,0" fill="#B55233" stroke-width="2" opacity="1"/><path aria-label="Year: 2032; Teachers: 10437; Measure: Current teachers; series: Current teachers; year: 2032; value: 10,437" role="graphics-symbol" aria-roledescription="point" transform="translate(232.75,67.45137500000001)" d="M2.739,0A2.739,2.739,0,1,1,-2.739,0A2.739,2.739,0,1,1,2.739,0" fill="#B55233" stroke-width="2" opacity="1"/><path aria-label="Year: 2033; Teachers: 10437; Measure: Current teachers; series: Current teachers; year: 2033; value: 10,437" role="graphics-symbol" aria-roledescription="point" transform="translate(260.13235294117646,67.45137500000001)" d="M2.739,0A2.739,2.739,0,1,1,-2.739,0A2.739,2.739,0,1,1,2.739,0" fill="#B55233" stroke-width="2" opacity="1"/><path aria-label="Year: 2034; Teachers: 10437; Measure: Current teachers; series: Current teachers; year: 2034; value: 10,437" role="graphics-symbol" aria-roledescription="point" transform="translate(287.5147058823529,67.45137500000001)" d="M2.739,0A2.739,2.739,0,1,1,-2.739,0A2.739,2.739,0,1,1,2.739,0" fill="#B55233" stroke-width="2" opacity="1"/><path aria-label="Year: 2035; Teachers: 10437; Measure: Current teachers; series: Current teachers; year: 2035; value: 10,437" role="graphics-symbol" aria-roledescription="point" transform="translate(314.8970588235294,67.45137500000001)" d="M2.739,0A2.739,2.739,0,1,1,-2.739,0A2.739,2.739,0,1,1,2.739,0" fill="#B55233" stroke-width="2" opacity="1"/><path aria-label="Year: 2036; Teachers: 10437; Measure: Current teachers; series: Current teachers; year: 2036; value: 10,437" role="graphics-symbol" aria-roledescription="point" transform="translate(342.2794117647059,67.45137500000001)" d="M2.739,0A2.739,2.739,0,1,1,-2.739,0A2.739,2.739,0,1,1,2.739,0" fill="#B55233" stroke-width="2" opacity="1"/><path aria-label="Year: 2037; Teachers: 10437; Measure: Current teachers; series: Current teachers; year: 2037; value: 10,437" role="graphics-symbol" aria-roledescription="point" transform="translate(369.6617647058824,67.45137500000001)" d="M2.739,0A2.739,2.739,0,1,1,-2.739,0A2.739,2.739,0,1,1,2.739,0" fill="#B55233" stroke-width="2" opacity="1"/><path aria-label="Year: 2038; Teachers: 10437; Measure: Current teachers; series: Current teachers; year: 2038; value: 10,437" role="graphics-symbol" aria-roledescription="point" transform="translate(397.04411764705884,67.45137500000001)" d="M2.739,0A2.739,2.739,0,1,1,-2.739,0A2.739,2.739,0,1,1,2.739,0" fill="#B55233" stroke-width="2" opacity="1"/><path aria-label="Year: 2039; Teachers: 10437; Measure: Current teachers; series: Current teachers; year: 2039; value: 10,437" role="graphics-symbol" aria-roledescription="point" transform="translate(424.4264705882353,67.45137500000001)" d="M2.739,0A2.739,2.739,0,1,1,-2.739,0A2.739,2.739,0,1,1,2.739,0" fill="#B55233" stroke-width="2" opacity="1"/><path aria-label="Year: 2040; Teachers: 10437; Measure: Current teachers; series: Current teachers; year: 2040; value: 10,437" role="graphics-symbol" aria-roledescription="point" transform="translate(451.80882352941177,67.45137500000001)" d="M2.739,0A2.739,2.739,0,1,1,-2.739,0A2.739,2.739,0,1,1,2.739,0" fill="#B55233" stroke-width="2" opacity="1"/></g><g class="mark-group role-legend" role="graphics-symbol" aria-roledescription="legend" aria-label="Symbol legend titled 'Measure' for fill color and stroke color with 2 values: Current teachers, Required teachers"><g transform="translate(484,0)"><path class="background" aria-hidden="true" d="M0,0h133v70h-133Z" pointer-events="none"/><g><g class="mark-group role-legend-entry"><g transform="translate(7.5,24.375)"><path class="background" aria-hidden="true" d="M0,0h0v0h0Z" pointer-events="none"/><g><g class="mark-group role-scope" role="graphics-object" aria-roledescription="group mark container"><g transform="translate(0,0)"><path class="background" aria-hidden="true" d="M0,0h117.15879821777344v15.75h-117.15879821777344Z" pointer-events="none" opacity="1"/><g><g class="mark-symbol role-legend-symbol" pointer-events="none"><path transform="translate(7,7)" d="M5,0A5,5,0,1,1,-5,0A5,5,0,1,1,5,0" fill="#B55233" stroke="#B55233" stroke-width="3.75" opacity="1"/></g><g class="mark-text role-legend-label" pointer-events="none"><text text-anchor="start" transform="translate(18,11)" font-family="'Source Sans 3', &quot;Source Sans&quot;, sans-serif" font-size="13.125px" font-weight="400" fill="#808495" opacity="1">Current teachers</text></g></g><path class="foreground" aria-hidden="true" d="" pointer-events="none" display="none"/></g><g transform="translate(0,21.75)"><path class="background" aria-hidden="true" d="M0,0h117.15879821777344v15.75h-117.15879821777344Z" pointer-events="none" opacity="1"/><g><g class="mark-symbol role-legend-symbol" pointer-events="none"><path transform="translate(7,7)" d="M5,0A5,5,0,1,1,-5,0A5,5,0,1,1,5,0" fill="#1F6C7A" stroke="#1F6C7A" stroke-width="3.75" opacity="1"/></g><g class="mark-text role-legend-label" pointer-events="none"><text text-anchor="start" transform="translate(18,11)" font-family="'Source Sans 3', &quot;Source Sans&quot;, sans-serif" font-size="13.125px" font-weight="400" fill="#808495" opacity="1">Required teachers</text></g></g><path class="foreground" aria-hidden="true" d="" pointer-events="none" display="none"/></g></g></g><path class="foreground" aria-hidden="true" d="" pointer-events="none" display="none"/></g></g><g class="mark-text role-legend-title" pointer-events="none"><text text-anchor="start" transform="translate(7.5,17.5)" font-family="'Source Sans 3', &quot;Source Sans&quot;, sans-serif" font-size="13.125px" font-style="normal" font-weight="400" fill="#808495" opacity="1">Measure</text></g></g><path class="foreground" aria-hidden="true" d="" pointer-events="none" display="none"/></g></g></g><path class="foreground" aria-hidden="true" d="" display="none"/></g></g></g></svg>